<?xml version="1.0" standalone="no"?>
<!DOCTYPE svg PUBLIC "-//W3C//DTD SVG 1.1//EN"
  "http://www.w3.org/Graphics/SVG/1.1/DTD/svg11.dtd">
<svg version="1.1" xmlns="http://www.w3.org/2000/svg" xmlns:xlink="http://www.w3.org/1999/xlink" width="1920" height="1080" viewBox="-1040.888888888889 -32 1889.7777777777778 1063" id="ccdiagram"><filter id="grayscale"><feColorMatrix type="matrix" values="0.3333 0.3333 0.3333 0 0 0.3333 0.3333 0.3333 0 0 0.3333 0.3333 0.3333 0 0 0 0 0 1 0"></feColorMatrix></filter><defs><style type="text/css">@import url('https://fonts.googleapis.com/css?family=Open+Sans:400,700|Inconsolata:400');</style></defs><g><rect x="-1040.888888888889" y="-32" width="1889.7777777777778" height="1063" fill="#ffffff" id="interactionLayer"></rect><g pointer-events="auto"><g opacity="1"><g><g><polygon points="96 241, 288 352, 288 389, 96 500, 32 500, -160 389, -160 352, 32 241" fill="#ffffff" stroke-width="2" stroke="#e6e7e8"></polygon><polygon points="64 259, 256 370, 64 481, -128 370" fill="#e6e7e8"></polygon></g></g></g></g><g pointer-events="auto"></g><g pointer-events="auto"></g><g></g><g pointer-events="auto"><g opacity="1"><g id="11889974-57e7-4789-be00-f08b7cc9c62c"><g><g><polygon points="64 629, 512 370, 32 93, -416 352" stroke="#9c27b0" stroke-width="8" fill="none"></polygon></g><g><polygon points="32 93, 0 74, -224 204, -224 241" stroke="#9c27b0" stroke-width="8" fill="#9c27b0"></polygon><text font-family="Inconsolata" font-size="20pt" font-weight="bold" fill="#ffffff" transform="translate(-8 105) matrix(0.707 -0.409 0.707 0.409 0 0)" text-anchor="end">Lab Public - VPC</text><g transform="translate(0 79) matrix(0.707 0.409 -0.707 0.409 0 0)"><svg width="34" height="32" style="fill: rgb(255, 255, 255);"><svg xmlns="http://www.w3.org/2000/svg" width="34" height="32" viewBox="0 0 34 32"><path d="M34.286 20.571a6.858 6.858 0 0 1-6.857 6.857H8c-4.411 0-8-3.589-8-8a7.993 7.993 0 0 1 4.607-7.232c-.018-.25-.036-.518-.036-.768a9.137 9.137 0 0 1 9.143-9.143c3.821 0 7.089 2.339 8.464 5.679a4.439 4.439 0 0 1 2.964-1.107 4.58 4.58 0 0 1 4.571 4.571 4.49 4.49 0 0 1-.732 2.464c3.036.714 5.304 3.429 5.304 6.679z"></path></svg></svg></g></g></g></g></g></g><g></g><g pointer-events="auto"><g opacity="1"><g id="d1bd238f-854c-4a47-8012-6d36b3585ee3" cursor="all-scroll"><g><g><polygon transform="matrix(-0.707 -0.409 0.707 -0.409 0 0)" points="-678.375 -633.15, -723.6 -587.9250000000001, -723.6 -226.125, -678.375 -180.9, -271.35 -180.9, -271.35 -587.9250000000001, -316.575 -633.15" stroke-width="11.2" stroke="#3f51b5" stroke-dasharray="16" fill="none"></polygon></g><g><polygon points="64 185, 32 167, -192 296, -192 333" stroke="#3f51b5" stroke-width="8" fill="#3f51b5"></polygon><text font-family="Inconsolata" font-size="20pt" font-weight="bold" fill="#ffffff" transform="translate(15 203) matrix(0.707 -0.409 0.707 0.409 0 0)" text-anchor="end">192.168.10.0/24</text><g transform="translate(32 176) matrix(0.707 0.409 -0.707 0.409 0 0)"><svg width="21" height="32" style="fill: rgb(255, 255, 255);"><svg xmlns="http://www.w3.org/2000/svg" width="21" height="32" viewBox="0 0 21 32"><path d="M5.714 13.714h9.143v-3.429c0-2.518-2.054-4.571-4.571-4.571s-4.571 2.054-4.571 4.571v3.429zm14.857 1.715v10.286c0 .946-.768 1.714-1.714 1.714H1.714A1.715 1.715 0 0 1 0 25.715V15.429c0-.946.768-1.714 1.714-1.714h.571v-3.429c0-4.393 3.607-8 8-8s8 3.607 8 8v3.429h.571c.946 0 1.714.768 1.714 1.714z"></path></svg></svg></g></g></g></g></g></g><g pointer-events="auto"></g><g pointer-events="none"></g><g pointer-events="auto"><g id="2cacbb20-69f9-4f0d-8313-27e0e77eff4c-f4c07e88-87b5-4040-b936-e48747c53b20"><g cursor="cell"><line x1="-158" y1="499" x2="38" y2="385" stroke="red" stroke-width="8" opacity="0"></line><line x1="-158" y1="499" x2="38" y2="385" stroke="#000000" stroke-width="2" stroke-linecap="round"></line><polygon points="48 379, 22 385, 36 386, 39 394, 48 379" stroke-linejoin="round" fill="#000000" stroke="#000000" stroke-width="1"></polygon></g></g><g id="39b1101d-4084-41a4-929d-f363ffe665cb-2cacbb20-69f9-4f0d-8313-27e0e77eff4c"><g cursor="cell"><line x1="-328" y1="596" x2="-267" y2="561" stroke="red" stroke-width="8" opacity="0"></line><line x1="-328" y1="596" x2="-267" y2="561" stroke="#000000" stroke-width="2" stroke-linecap="round"></line><polygon points="-258 556, -283 561, -270 563, -267 571, -258 556" stroke-linejoin="round" fill="#000000" stroke="#000000" stroke-width="1"></polygon></g></g></g><g pointer-events="auto"><g opacity="1"><g id="f4c07e88-87b5-4040-b936-e48747c53b20" cursor="all-scroll" transform="translate(0 0)"><svg x="16" y="287" height="111" width="128" fill-rule="evenodd" stroke-linejoin="round" stroke-miterlimit="1.414" xml:space="preserve"><path d="M64 74v37l64-37V37L64 74Z" fill="#b8b8bb"></path><path d="M0 37v37l64 37V74L0 37Z" fill="#d2d2d4"></path><path d="M0 37 64 0l64 37-64 37L0 37Z" fill="#ececed"></path><path d="m64 73.407 62.111-35.86.514.889-62.487 36.078h-.276L.743 38.072l.514-.89L64 73.407Z" fill="#83838a"></path><path d="M63.486 74h1.027v36h-1.027z" fill="#83838a"></path><path d="M128 37v37l-64 37L0 74V37L64 0l64 37ZM2.054 38.185v34.63L64 108.627l61.946-35.812v-34.63L64 2.373 2.054 38.185Z" fill="#000000"></path></svg><svg x="74" y="305" width="54" height="36" style="overflow: visible; cursor: default;"><rect transform="matrix(0.707 0.409 -0.707 0.409 0 0)" width="54" height="36" rx="5" ry="5" fill="#4286c5"></rect><text transform="matrix(0.707 0.409 -0.707 0.409 0 0)" font-family="Open Sans" text-anchor="middle" x="50%" font-weight="normal" font-size="20pt" y="80%" fill="#ffffff"><tspan>T2</tspan></text></svg></g></g></g><g pointer-events="auto"></g><g pointer-events="auto"><g opacity="1"><g id="39b1101d-4084-41a4-929d-f363ffe665cb" transform="translate(0 0)"><svg x="-368" y="620" overflow="visible"><g transform=" "><circle cx="0" cy="0" fill="#000000" r="40"></circle><svg width="100" height="100" x="-50" y="-50" style="fill: rgb(255, 255, 255);"><svg data-name="Layer 1" xmlns="http://www.w3.org/2000/svg" width="100" height="100" viewBox="0 0 100 100"><path d="m50 24.51 11.78 9.2v2.48a11.77 11.77 0 0 1-23.54 0v-2.48ZM56.73 51.22c7.44 0 13.45 4.51 13.45 11.87v14.84h-7.75V67.52h-1.32v10.41H39.19V67.52h-1.33v10.41h-8V63.09c0-7.36 6-11.87 13.46-11.87Z" fill="#7d7c7c"></path><path d="M50 22a11.68 11.68 0 1 1-11.77 11.71A11.73 11.73 0 0 1 50 22ZM56.73 48.74c7.44 0 13.45 4.51 13.45 11.87v14.84h-7.75V65h-1.32v10.45H39.19V65h-1.33v10.45h-8V60.61c0-7.36 6-11.87 13.46-11.87Z" fill="#d2d3d3"></path></svg></svg></g></svg></g></g><g opacity="1"><g id="2cacbb20-69f9-4f0d-8313-27e0e77eff4c" transform="translate(0 0)"><svg x="-208" y="527" overflow="visible"><g transform="scale(1.3975424859373686) matrix(0.707 0.409 -0.707 0.409 0 0)"><circle cx="0" cy="0" fill="transparent" r="40"></circle><svg width="100" height="100" x="-50" y="-50" style="fill: rgb(255, 255, 255);"><svg data-name="Layer 1" xmlns="http://www.w3.org/2000/svg" width="100" height="100" viewBox="0 0 100 100"><g><circle cx="50" cy="51.25" r="30.43" fill="#9d5025"></circle><path fill="#9d5025" d="M19.57 48.75h60.86v2.5H19.57z"></path><circle cx="50" cy="48.75" r="30.43" fill="#f58536"></circle><path d="M27.06 51.77V51a10 10 0 0 1 5.63-8.39A12.32 12.32 0 0 1 55.63 37 6.82 6.82 0 0 1 65 42c4.59.9 7.9 5.29 7.9 9v.73c0 4.5-4.66 8.45-10 8.45H37c-5.28.04-9.94-3.91-9.94-8.41Z" fill="#fff"></path><path d="m56.25 40.24-1.94 1.33-1-2.14A9.19 9.19 0 0 0 45 34a9.17 9.17 0 0 0-9.17 9.18v1.7l-1.44.42a6.74 6.74 0 0 0-4.2 5.7v.73c0 2.47 3 5.34 6.85 5.34H63c3.85 0 6.84-2.87 6.84-5.34V51c0-2.48-2.77-5.75-6-6l-1.74-.14-.1-1.72a3.67 3.67 0 0 0-5.75-2.89Z" fill="#f58536"></path></g></svg></svg></g></svg></g></g></g><g pointer-events="auto"></g><g pointer-events="auto"><g></g><g></g><g></g><g></g><g></g><g></g><g></g><g></g><g></g><g></g></g></g></svg>